# xmcd
#
# Track frame offsets: 
#        150
#        19913
#        37582
#        54506
#        75272
#        99755
#        118241
#        136711
#        157107
#        171468
#
# Disc length: 2539 seconds
#
# Revision: 0
# Processed by: cddbd v1.5.2PL0 Copyright (c) Steve Scherf et al.
# Submitted via: ExactAudioCopy v0.99pb1
#
DISCID=7009e90a
DTITLE=The Royal Dentists - Visitors
DYEAR=1900
DGENRE=Pop
TTITLE0=Black Wall
TTITLE1=Heroes Are Sleeping
TTITLE2=Cold Air
TTITLE3=Vivian
TTITLE4=Im Regen stehen
TTITLE5=In June
TTITLE6=Sail The Ships
TTITLE7=Paris
TTITLE8=Way Back Home
TTITLE9=La Désir
EXTD=
EXTT0=
EXTT1=
EXTT2=
EXTT3=
EXTT4=
EXTT5=
EXTT6=
EXTT7=
EXTT8=
EXTT9=
PLAYORDER=
